# xmcd CD database file
#
# Track frame offsets:
#	151
#	14324
#	30460
#	47656
#	67056
#	81563
#	99224
#	113937
#	128126
#	146273
#	172348
#	190637
#	208371
#	227809
#	240214
#	257477
#	272745
#	290676
#	307576
#
# Disc length: 4290 seconds
#
# Revision: 1
# Processed by: cddbd v1.5.1PL0 Copyright (c) Steve Scherf et al.
# Submitted via: jetAudio 5
#
DISCID=0910c013
DTITLE=Haris Dzinovic - Extra Best Of
DYEAR=1900
DGENRE=
TTITLE0=Jesul` dunje procvale
TTITLE1=O` gila
TTITLE2=Giljam dade
TTITLE3=Odlazis od mene
TTITLE4=Hladno je ,ugrej me
TTITLE5=Dajte vina hocu lom
TTITLE6=Pusti me 
TTITLE7=Ja necu tebe da krivim
TTITLE8=Kako boli me
TTITLE9=Tugo moja
TTITLE10=Ando deco
TTITLE11=Nek mi bude zadnja casa
TTITLE12=I tebe sam sit kafano-Disco mix
TTITLE13=Volim te-Disco mix
TTITLE14=Sjecas li se one noci-Disco mix
TTITLE15=Nevolja moja
TTITLE16=Krcmaru vina za svirace
TTITLE17=Rano je za tugu
TTITLE18=Ostaricu necu znati
EXTD=
EXTT0=
EXTT1=
EXTT2=
EXTT3=
EXTT4=
EXTT5=
EXTT6=
EXTT7=
EXTT8=
EXTT9=
EXTT10=
EXTT11=
EXTT12=
EXTT13=
EXTT14=
EXTT15=
EXTT16=
EXTT17=
EXTT18=
PLAYORDER=
